<svg id="visual" viewBox="0 0 960 540" width="960" height="540" xmlns="http://www.w3.org/2000/svg" xmlns:xlink="http://www.w3.org/1999/xlink" version="1.1"><path d="M0 232L14.5 233.8C29 235.7 58 239.3 87.2 254.8C116.3 270.3 145.7 297.7 174.8 304.5C204 311.3 233 297.7 262 287.5C291 277.3 320 270.7 349 261.7C378 252.7 407 241.3 436.2 234.8C465.3 228.3 494.7 226.7 523.8 220.2C553 213.7 582 202.3 611 205.3C640 208.3 669 225.7 698 228C727 230.3 756 217.7 785.2 209.8C814.3 202 843.7 199 872.8 207.2C902 215.3 931 234.7 945.5 244.3L960 254L960 541L945.5 541C931 541 902 541 872.8 541C843.7 541 814.3 541 785.2 541C756 541 727 541 698 541C669 541 640 541 611 541C582 541 553 541 523.8 541C494.7 541 465.3 541 436.2 541C407 541 378 541 349 541C320 541 291 541 262 541C233 541 204 541 174.8 541C145.7 541 116.3 541 87.2 541C58 541 29 541 14.5 541L0 541Z" fill="#003179"></path><path d="M0 296L14.5 298.8C29 301.7 58 307.3 87.2 307.8C116.3 308.3 145.7 303.7 174.8 302.5C204 301.3 233 303.7 262 325.2C291 346.7 320 387.3 349 395C378 402.7 407 377.3 436.2 360.7C465.3 344 494.7 336 523.8 332.5C553 329 582 330 611 334.7C640 339.3 669 347.7 698 343.2C727 338.7 756 321.3 785.2 325.8C814.3 330.3 843.7 356.7 872.8 362.7C902 368.7 931 354.3 945.5 347.2L960 340L960 541L945.5 541C931 541 902 541 872.8 541C843.7 541 814.3 541 785.2 541C756 541 727 541 698 541C669 541 640 541 611 541C582 541 553 541 523.8 541C494.7 541 465.3 541 436.2 541C407 541 378 541 349 541C320 541 291 541 262 541C233 541 204 541 174.8 541C145.7 541 116.3 541 87.2 541C58 541 29 541 14.5 541L0 541Z" fill="#548bdf"></path></svg>