<svg id="visual" viewBox="0 0 900 600" width="900" height="600" xmlns="http://www.w3.org/2000/svg" xmlns:xlink="http://www.w3.org/1999/xlink" version="1.1"><path d="M0 326L30 326.8C60 327.7 120 329.3 180 325C240 320.7 300 310.3 360 299C420 287.7 480 275.3 540 267.3C600 259.3 660 255.7 720 257C780 258.3 840 264.7 870 267.8L900 271L900 601L870 601C840 601 780 601 720 601C660 601 600 601 540 601C480 601 420 601 360 601C300 601 240 601 180 601C120 601 60 601 30 601L0 601Z" fill="#0066FF" stroke-linecap="round" stroke-linejoin="miter"></path></svg>